<svg xmlns="http://www.w3.org/2000/svg" xmlns:xlink="http://www.w3.org/1999/xlink" viewBox="0 0 255 255"><defs><style>.a{fill:none;}.b{fill:#231f20;}.c{fill:url(#a);}</style><pattern id="a" width="30" height="30" patternUnits="userSpaceOnUse" viewBox="0 0 30 30"><rect class="a" width="30" height="30"/><path class="b" d="M25.8,27.24a1.44,1.44,0,1,0-1.44-1.44A1.43,1.43,0,0,0,25.8,27.24Z"/><path class="b" d="M11.4,27.24A1.44,1.44,0,1,0,10,25.8,1.44,1.44,0,0,0,11.4,27.24Z"/><path class="b" d="M25.8,12.84a1.44,1.44,0,1,0-1.44-1.44A1.43,1.43,0,0,0,25.8,12.84Z"/><path class="b" d="M11.4,12.84A1.44,1.44,0,1,0,10,11.4,1.44,1.44,0,0,0,11.4,12.84Z"/><path class="b" d="M4.2,20A1.44,1.44,0,1,0,2.76,18.6,1.44,1.44,0,0,0,4.2,20Z"/><path class="b" d="M18.6,20a1.44,1.44,0,1,0-1.44-1.44A1.43,1.43,0,0,0,18.6,20Z"/><path class="b" d="M4.2,5.64A1.44,1.44,0,1,0,2.76,4.2,1.44,1.44,0,0,0,4.2,5.64Z"/><path class="b" d="M18.6,5.64A1.44,1.44,0,1,0,17.16,4.2,1.43,1.43,0,0,0,18.6,5.64Z"/></pattern></defs><title>dots-15</title><rect class="c" width="255" height="255"/></svg>