<svg xmlns="http://www.w3.org/2000/svg" xmlns:xlink="http://www.w3.org/1999/xlink" viewBox="0 0 250 250"><defs><style>.a{fill:none;}.b{fill:#231f20;}.c{fill:url(#a);}</style><pattern id="a" width="30" height="30" patternUnits="userSpaceOnUse" viewBox="0 0 30 30"><rect class="a" width="30" height="30"/><circle class="b" cx="25.8" cy="25.8" r="0.72"/><path class="b" d="M11.4,26.52a.72.72,0,1,0-.72-.72A.72.72,0,0,0,11.4,26.52Z"/><path class="b" d="M25.8,12.12a.72.72,0,1,0-.72-.72A.72.72,0,0,0,25.8,12.12Z"/><path class="b" d="M11.4,12.12a.72.72,0,1,0-.72-.72A.72.72,0,0,0,11.4,12.12Z"/><path class="b" d="M4.2,19.32a.72.72,0,1,0-.72-.72A.72.72,0,0,0,4.2,19.32Z"/><path class="b" d="M18.6,19.32a.72.72,0,1,0-.72-.72A.72.72,0,0,0,18.6,19.32Z"/><path class="b" d="M4.2,4.92a.72.72,0,1,0-.72-.72A.72.72,0,0,0,4.2,4.92Z"/><path class="b" d="M18.6,4.92a.72.72,0,1,0-.72-.72A.72.72,0,0,0,18.6,4.92Z"/></pattern></defs><title>dots</title><rect class="c" width="250" height="250"/></svg>