<svg xmlns="http://www.w3.org/2000/svg" xmlns:xlink="http://www.w3.org/1999/xlink" viewBox="0 0 341.56 683.03"><defs><style>.a{fill:#fff;}.b{stroke:#000;stroke-miterlimit:10;fill:url(#a);}</style><radialGradient id="a" cx="205.5" cy="353.62" r="213.09" gradientTransform="translate(0 -707.24) scale(1 3)" gradientUnits="userSpaceOnUse"><stop offset="0" stop-color="#4d4d4d"/><stop offset="0.01" stop-color="#4a4a4a"/><stop offset="0.23" stop-color="#222"/><stop offset="0.4" stop-color="#090909"/><stop offset="0.5"/><stop offset="0.6" stop-color="#020202"/><stop offset="0.64" stop-color="#090808"/><stop offset="0.67" stop-color="#141213"/><stop offset="0.69" stop-color="#231f20"/><stop offset="0.75" stop-color="#272324"/><stop offset="0.82" stop-color="#312e2f"/><stop offset="0.88" stop-color="#434141"/><stop offset="0.94" stop-color="#5c5b5b"/><stop offset="0.99" stop-color="#7c7c7c"/><stop offset="1" stop-color="gray"/></radialGradient></defs><title>Logo</title><polygon class="a" points="0.56 575.22 0.5 575.28 0.5 468.34 67.63 401.21 67.63 507.76 231.92 343.46 231.92 450.4 0.5 681.82 0.56 575.22"/><path d="M286.57,357.64V463.16L56.15,693.58l.06-104.19V587l-.07.06V481.51l66.13-66.12V521.93l1.71-1.7L286.57,357.64m1-2.42L123.28,519.52V413L55.15,481.1V589.45l.06-.06L55.15,696,287.57,463.58V355.22Z" transform="translate(-55.15 -12.97)"/><path class="b" d="M205.5,63.83h0a82.69,82.69,0,0,0-82.69,82.68V560.72a82.69,82.69,0,0,0,82.69,82.69h0a82.69,82.69,0,0,0,82.69-82.69V146.51A82.69,82.69,0,0,0,205.5,63.83ZM190,186.38a2.65,2.65,0,1,1-2.73,2.65A2.69,2.69,0,0,1,190,186.38Zm0,31.78a2.65,2.65,0,1,1-2.73,2.64A2.68,2.68,0,0,1,190,218.16Zm0,319.64a2.65,2.65,0,1,1,2.73-2.65A2.7,2.7,0,0,1,190,537.8ZM190,506a2.65,2.65,0,1,1,2.73-2.65A2.7,2.7,0,0,1,190,506Zm32.76-319.65A2.65,2.65,0,1,1,220,189,2.69,2.69,0,0,1,222.74,186.38Zm0,31.78A2.65,2.65,0,1,1,220,220.8,2.68,2.68,0,0,1,222.74,218.16Zm0,319.64a2.65,2.65,0,1,1,2.73-2.65A2.7,2.7,0,0,1,222.74,537.8Zm0-31.77a2.65,2.65,0,1,1,2.73-2.65A2.7,2.7,0,0,1,222.74,506Z" transform="translate(-55.15 -12.97)"/><polygon class="a" points="232.92 342.46 233.92 341.45 232.78 340.3 67.65 175.18 67.65 282.72 0.53 215.59 0.53 108.66 0.66 108.79 0.63 1.21 340.69 341.26 340.87 341.45 340.68 341.65 232.92 449.4 232.92 342.46"/><path d="M56.28,15.38,286.87,246,395.32,354.42,288.57,461.16V355.64l.51-.52.69-.7-.69-.7-.54-.55-.26-.26L124,188.64l-1.71-1.7V294.48L56.18,228.36V122.84l.13.13v-2.43l0-105.16m-1-2.41,0,107.58-.13-.14V228.77L123.3,296.9V189.35L287.57,353.62l.26.26.54.54-.54.54-.26.26V463.58L396.19,355l.51-.54h0l-.52-.53L287.57,245.26,55.28,13Z" transform="translate(-55.15 -12.97)"/></svg>